<svg xmlns="http://www.w3.org/2000/svg" width="336" height="304" fill="none" xmlns:v="https://vecta.io/nano"><g clip-path="url(#A)"><g fill="#e8e8e8"><path d="M.676 249.836c2.933-1.436 4.178-5.247 7.361-6.241 3.265-1.021 6.89.994 9.879-1.215 1.3-.966 2.269-2.568 3.846-3.148 1.384-.497 2.823.055 4.151.47l3.404 1.049 13.67 4.197 15.496 4.75c.498.166.719-.635.221-.801l-28.363-8.698c-2.214-.663-4.51-1.685-6.807-1.961-1.605-.193-2.878.442-4.012 1.491-1.577 1.464-2.767 2.817-5.064 2.927-1.909.111-3.791-.386-5.7-.082-3.929.607-5.147 4.887-8.467 6.517-.498.276-.083.994.387.745z"/><path d="M50.401 246.357c1.965.497 3.514-1.464 5.285-2.044 2.38-.801 4.926-.469 7.084.773.471.276.886-.442.415-.718-1.826-1.077-3.902-1.518-6.005-1.242-.913.11-1.771.359-2.601.718-1.19.524-2.573 2.043-3.957 1.712-.526-.138-.747.663-.221.801zm21.334-2.071c-1.854-1.519-3.625-3.148-5.285-4.888l-2.241-2.513-1.217-1.491-.803-1.077c-.443-.442-.443-.994.028-1.602.332.138.858-.193.581-.58a23.61 23.61 0 0 1-3.736-7.456l-.498.497c.913.249 1.577.718 2.075 1.492.277.441.996.055.72-.415-4.123-7.124-7.499-14.635-10.045-22.45-.221.138-.47.276-.692.414 11.594 11.377 16.852 27.2 26.62 39.931.332.414 1.052 0 .719-.415-9.796-12.785-15.108-28.663-26.758-40.096-.277-.276-.83 0-.692.414a116.96 116.96 0 0 0 10.128 22.644c.249-.138.47-.276.72-.414-.637-.966-1.467-1.602-2.573-1.878-.304-.083-.609.194-.498.497.83 2.762 2.103 5.33 3.819 7.65l.581-.58c-.775-.359-1.633 0-1.826.911-.249 1.298 1.328 2.734 2.048 3.645 2.463 3.065 5.258 5.854 8.301 8.339.36.332.941-.248.526-.579z"/><path d="M68.83 227.027c-5.092-7.594-9.215-15.741-12.258-24.356-.083.165-.194.331-.277.497.941-.221 1.743.138 2.269.966.277.47.941.056.72-.414-4.289-9.251-8.661-18.888-8.357-29.299-.249.083-.526.138-.775.221 7.388 15.188 14.417 30.569 21.058 46.089.194.441.913.11.747-.332l-3.293-9.969-1.605-4.86c-.36-1.077-1.135-3.424.415-4.004-.166-.055-.304-.138-.471-.193l5.949 11.681c.249.469.969.055.72-.414-2.158-4.225-3.154-8.892-2.961-13.642-.277.028-.553.083-.802.11 5.756 14.277 12.424 28.195 19.923 41.643.249.469.969.055.719-.414-7.471-13.393-14.112-27.228-19.84-41.449-.166-.415-.802-.387-.802.11-.194 4.888.858 9.665 3.072 14.056.249-.138.47-.276.719-.414l-5.949-11.681c-.083-.138-.304-.249-.47-.194-2.767 1.022-.996 4.971-.387 6.821l4.289 13.034.747-.331c-6.641-15.52-13.67-30.901-21.058-46.089-.194-.386-.775-.165-.775.221-.332 10.549 4.123 20.352 8.467 29.713.249-.138.47-.276.72-.414a2.92 2.92 0 0 0-3.21-1.353c-.221.055-.36.304-.277.497a110.42 110.42 0 0 0 12.341 24.549c.277.47.996.055.692-.386zm-54.678 53.378c9.574-4.611 19.674-9.306 30.604-8.201 5.175.524 10.183 2.016 15.33 2.678 2.601.332 5.23.47 7.831.166 2.435-.304 4.732-1.187 7.111-1.712 3.072-.69 5.866.028 8.827.856 2.435.663 4.843 1.215 7.361.635.526-.11.304-.911-.221-.801-5.036 1.188-9.768-2.43-14.859-1.712-2.518.359-4.87 1.353-7.361 1.795-2.629.442-5.313.387-7.969.055-5.23-.607-10.321-2.154-15.579-2.733-5.175-.58-10.294.082-15.247 1.518-5.645 1.657-10.985 4.198-16.243 6.738-.498.221-.055.939.415.718zm56.172 22.892c3.237-1.38 6.42-2.899 9.491-4.611a119.92 119.92 0 0 0 4.759-2.844c1.411-.912 2.822-2.21 4.372-2.872 1.743-.718 4.372.635 6.115 1.16l5.534 1.712 11.346 3.479c.498.166.719-.635.221-.801l-12.148-3.728-5.811-1.795c-1.494-.469-3.376-1.436-4.953-1.049-1.467.359-2.795 1.629-4.04 2.458a112.16 112.16 0 0 1-4.925 3.037c-3.348 1.906-6.807 3.618-10.377 5.109-.498.221-.055.939.415.745z"/><path d="M104.747 304.154l6.309-3.176c1.937-.994 4.012-2.32 6.226-2.513 2.241-.221 3.985 1.243 5.922 2.099a15.25 15.25 0 0 0 5.174 1.242c4.151.221 8.025-1.85 12.148-1.629 3.293.193 6.613 2.9 9.851 1.188.47-.249.055-.967-.415-.718-2.02 1.077-4.206.027-6.199-.608-1.715-.552-3.376-.801-5.174-.607-4.262.441-8.163 2.236-12.535 1.215-3.625-.829-6.392-3.839-10.294-2.707-1.799.525-3.486 1.519-5.147 2.348l-6.309 3.175c-.442.221-.027.939.443.691z"/><path d="M120.907 298.161c-1.716-1.491-3.265-3.148-4.538-5.053-.581-.856-1.107-1.768-1.605-2.679l-.664-1.408-.471-1.132c-.249-.415-.138-.801.333-1.16l.747-.332c-3.044-4.473-4.953-9.554-5.59-14.911-.249.11-.47.193-.719.304l1.522 1.933c.304.386.885-.111.664-.498-4.815-8.588-7.389-18.253-7.444-28.083-.249.11-.47.193-.719.303 1.881 1.519 3.32 3.397 4.206 5.634l.747-.332c-2.159-4.556-2.601-9.692-1.328-14.552h-.803l16.99 48.601c.166.497.969.276.803-.221-2.85-8.312-4.262-17.038-4.179-25.847-.249.11-.47.193-.719.304a9.66 9.66 0 0 1 3.127 5.661c.083.469.83.359.802-.111l-.276-5.081c-.222.111-.416.249-.637.359 1.467.939 1.743 3.424 2.214 4.971l1.522 4.998 3.099 10.245 6.226 20.49c.166.497.968.303.802-.221l-6.696-22.064-3.265-10.77-1.661-5.523c-.359-1.132-.774-2.154-1.798-2.816-.249-.166-.637.055-.637.359l.277 5.081c.277-.028.554-.083.803-.111-.388-2.375-1.55-4.446-3.349-6.047-.276-.249-.691-.083-.719.303-.083 8.865 1.328 17.674 4.206 26.068.277-.082.526-.138.802-.22l-16.99-48.602c-.138-.359-.692-.414-.802 0-1.328 5.109-.83 10.438 1.411 15.188.194.414.941.111.747-.331a14.19 14.19 0 0 0-4.427-5.993c-.277-.22-.72-.082-.72.304.056 9.969 2.657 19.8 7.555 28.498l.664-.497-1.522-1.933c-.222-.276-.747-.055-.72.304a33.99 33.99 0 0 0 5.701 15.326c.276.387.83.138.747-.331-.139-.774-1.052-1.05-1.688-.58-1.162.828-.028 2.789.387 3.728 1.577 3.507 3.929 6.572 6.835 9.085.581.303 1.162-.276.747-.608zm-28.944-61.939c-.36-5.191 9.076-2.209 11.705-1.712l12.922 2.403 25.845 4.805c.526.11.747-.691.221-.801l-29.608-5.523-14.527-2.706c-1.743-.332-3.763-.691-5.396.221-1.245.662-2.075 1.877-1.965 3.313 0 .525.858.525.803 0z"/><path d="M136.707 240.806c2.878.304 4.649-2.43 6.89-3.755 1.91-1.105 3.57-.249 5.535.138 2.186.442 4.427.497 6.641.221.525-.056.525-.884 0-.829-2.491.304-4.981.194-7.416-.414-1.467-.387-2.795-.856-4.261-.276-2.602.994-4.373 4.418-7.389 4.087-.525-.055-.525.773 0 .828zm52.769 53.103c6.641-2.32 13.338-4.64 20.2-6.297 7.167-1.712 14.389-2.402 21.75-2.181 7.277.221 14.499 1.049 21.749 1.712l21.833 2.044 25.098 2.347c.525.055.525-.773 0-.829l-44.772-4.169c-14.362-1.326-28.806-3.287-43.112-.332-7.859 1.629-15.441 4.28-22.995 6.904-.47.165-.249.966.249.801zm29.249-27.173c4.953-1.049 9.601-3.12 14.278-4.998 5.008-1.988 10.072-3.369 15.44-3.838 5.424-.47 10.875-.194 16.271.138l16.298 1.104 19.038 1.547c.526.055.526-.774 0-.829l-33.731-2.568c-10.709-.69-21.251-.966-31.462 2.817-5.424 2.016-10.681 4.584-16.381 5.799-.471.138-.277.939.249.828zm63.782-31.839c3.957-3.01 8.135-5.965 12.562-8.229 2.159-1.105 4.483-1.989 6.918-2.182 2.629-.221 5.258.304 7.831.635 5.23.635 10.488 1.022 15.745 1.353 3.487.221 7.914.718 10.377-2.319.332-.415-.249-.994-.581-.58-2.795 3.452-8.689 2.154-12.508 1.905-5.257-.359-10.459-.856-15.689-1.519-2.242-.276-4.455-.497-6.697-.082-2.213.386-4.289 1.27-6.253 2.319-4.262 2.264-8.302 5.081-12.148 8.008-.387.304.028 1.022.443.691zm-152.33-4.557l11.815-8.836c3.764-2.817 7.278-5.772 12.203-6.02 4.649-.221 9.409.304 14.03.69 4.981.414 9.934.967 14.859 1.657 4.151.58 9.104 2.126 13.033-.028.471-.248.056-.966-.415-.718-2.02 1.105-4.261 1.105-6.502.829-2.408-.304-4.815-.718-7.223-1.05-4.648-.635-9.325-1.159-14.029-1.546-4.621-.387-9.408-.939-14.029-.663-4.289.249-7.471 2.458-10.82 4.971l-13.337 9.969c-.415.359 0 1.077.415.745z"/><path d="M285.855 259.529c.249-1.823.609-3.59 1.135-5.357l.83-2.486c.193-.497.719-1.325 1.439-1.132.359.111.525 1.353.553 1.602.055.442.664.58.802.11 1.301-4.225 2.795-8.864 6.78-11.322-.221-.11-.415-.248-.637-.359l-.027 2.099c0 .387.581.58.775.221 2.462-5.109 5.146-10.466 10.127-13.559-.193-.165-.415-.303-.609-.469-2.49 6.434-5.395 12.702-8.688 18.778-.222.386.332.883.664.497 1.854-2.209 3.735-4.419 6.171-6.02l-.582-.58c-3.071 6.462-6.419 12.758-10.1 18.888-.276.469.443.884.72.414 3.652-6.13 7.028-12.426 10.1-18.888.166-.331-.194-.828-.581-.58-2.491 1.657-4.428 3.894-6.337 6.158l.664.497c3.321-6.13 6.254-12.454 8.772-18.971.138-.331-.332-.635-.609-.469-5.119 3.175-7.886 8.615-10.432 13.862.249.083.526.138.775.221l.028-2.099c0-.303-.36-.524-.637-.359-4.15 2.568-5.783 7.373-7.139 11.819.277.028.553.083.802.111-.138-1.409-1.411-3.811-2.96-2.016-.775.911-1.08 2.402-1.412 3.535-.553 1.822-.94 3.7-1.217 5.605-.028.553.747.773.83.249zM92.516 212.916c2.158-1.16 4.344-2.32 6.724-2.955 2.519-.663 5.008-.442 7.526-.11l14.998 1.988c.526.083.526-.746 0-.829l-16.049-2.126c-2.463-.304-4.815-.304-7.195.387-2.269.662-4.372 1.795-6.447 2.899-.471.304-.028.994.443.746zM260.84 25.607c1.993-1.684 4.787-1.353 6.973-.276 1.661.801 3.017 2.43 4.954 2.513 1.798.055 3.292-1.16 4.814-1.961 1.024-.525 2.076-.884 3.238-.635 1.245.249 2.324.966 3.459 1.464 3.735 1.629 6.226-.635 9.38-2.43.886-.497 1.827-.939 2.85-1.022 1.301-.11 2.463.47 3.625.966 1.827.773 3.21 1.077 5.064.331 1.909-.746 3.459-.635 5.368.055 1.218.442 2.38.994 3.653 1.27 1.909.442 3.957.331 5.396-1.132.387-.387-.222-.966-.581-.58-1.854 1.878-4.677.994-6.807.166-2.159-.828-4.372-1.712-6.669-.856-1.439.552-2.408.939-3.957.414-1.052-.359-2.02-.939-3.099-1.243-1.633-.497-3.155-.221-4.649.525-1.716.856-3.21 2.209-5.009 2.927-2.379.939-4.233-.304-6.392-1.215-1.577-.663-3.071-.773-4.648-.083-1.91.856-3.764 2.734-6.005 1.933-1.19-.414-2.131-1.381-3.21-1.988a10.06 10.06 0 0 0-2.933-1.049c-1.965-.359-3.874-.028-5.424 1.27-.387.414.222.994.609.635zm9.962 18.861c.526 0 .526-.829 0-.829s-.526.829 0 .829zm5.534 3.01c1.301-2.347 4.372-1.215 6.281-.442s3.625 1.243 5.645.552c1.661-.58 3.155-1.684 4.87-2.071 2.38-.552 3.736 1.464 5.894 1.933 3.376.745 6.78-3.01 9.962-1.436.886.442 1.494 1.022 2.546.939.968-.055 1.854-.525 2.795-.746 2.628-.608 5.368-.138 7.72 1.16.47.248.885-.469.415-.718a12.26 12.26 0 0 0-4.787-1.491 10.26 10.26 0 0 0-2.601.083c-1.024.138-1.965.58-2.961.773-1.356.248-1.937-.414-3.044-.884-.553-.221-1.162-.331-1.743-.304-1.384.055-2.712.635-3.985 1.105-1.632.607-3.376 1.187-5.036.359-1.411-.69-2.518-1.74-4.178-1.74-3.432.028-5.839 3.314-9.464 2.32-2.684-.746-7.001-3.369-8.993.166-.304.497.415.911.664.442zm-26.841 33.054c1.965-1.546 4.206-1.464 6.364-.469 1.19.552 2.463 1.077 3.708.331.72-.442 1.19-1.132 2.048-1.381.913-.276 1.882-.083 2.767.138 1.577.387 3.099 1.077 4.732 1.187 1.937.138 3.708-.69 5.59-.884 2.02-.193 3.431 1.022 5.312 1.298 1.827.249 3.238-1.215 5.064-.939 2.214.331 4.4 1.077 6.586 1.629.526.138.747-.663.221-.801-2.296-.58-4.676-1.464-7.028-1.712-1.992-.221-3.431 1.408-5.424.801-1.854-.552-3.182-1.353-5.174-1.077-2.131.304-4.068 1.132-6.254.663-1.688-.359-3.32-1.16-5.064-1.27-.636-.028-1.3.028-1.909.276-.775.304-1.19.939-1.909 1.353-1.661.966-3.902-1.077-5.673-1.215-1.688-.138-3.237.442-4.566 1.464-.415.359.194.939.609.608zM90.856 20.278c.526 0 .526-.828 0-.828s-.526.828 0 .828zm2.435.635c.498-2.458 3.763-.884 4.953-.138 1.356.856 2.795 1.629 4.455 1.16 1.799-.525 3.016-2.071 5.009-2.181 1.881-.083 3.708.773 5.479 1.325 1.522.47 3.127.801 4.704.414 1.854-.442 3.431-1.74 5.313-2.071 3.708-.635 7.056 2.375 10.819 1.215.498-.166.304-.966-.221-.801-3.93 1.243-7.665-2.237-11.65-.994-2.048.635-3.763 2.071-6.005 1.988-2.075-.083-3.956-1.077-5.921-1.574-1.55-.387-3.127-.497-4.621.193-.858.387-1.605 1.022-2.463 1.436-1.411.663-2.601.276-3.874-.442-1.384-.801-2.574-1.74-4.261-1.602-1.19.083-2.241.69-2.463 1.905-.138.469.664.69.747.166zm2.518 161.24c3.293-1.38 6.614 1.077 9.934 1.243 1.716.083 3.376-.331 5.064-.663 2.131-.414 3.957-.442 6.005.414 1.245.525 2.379.856 3.652.359.72-.276 1.329-.745 2.048-.994.802-.276 1.633-.331 2.49-.331 2.961.055 5.922 1.077 8.744-.249.471-.221.056-.938-.415-.718-3.016 1.409-6.364-.138-9.546.194-1.522.165-2.518 1.049-3.929 1.463-1.688.497-3.349-.939-5.009-1.187-3.57-.552-6.945 1.436-10.543.718-2.877-.58-5.783-2.265-8.716-1.022-.47.193-.249.994.221.773z"/></g><g fill="#0a3871"><path d="M35.984 141.477a4.37 4.37 0 0 0 4.372-4.363 4.372 4.372 0 1 0-8.744 0 4.37 4.37 0 0 0 4.372 4.363zm254.492-29.989a3.07 3.07 0 0 0 3.072-3.065 3.071 3.071 0 1 0-6.143 0 3.07 3.07 0 0 0 3.071 3.065zM262.833 4.703c1.253 0 2.269-1.014 2.269-2.264S264.086.175 262.833.175s-2.269 1.014-2.269 2.264 1.015 2.264 2.269 2.264zm-99.949 196.366a2.82 2.82 0 0 0 2.823-2.817 2.823 2.823 0 1 0-5.645 0 2.82 2.82 0 0 0 2.822 2.817zM32.774 41.099c1.788 0 3.237-1.447 3.237-3.231s-1.45-3.231-3.237-3.231-3.238 1.446-3.238 3.231 1.45 3.231 3.238 3.231zM144.4 154.456c1.024 0 1.854-.828 1.854-1.85s-.83-1.85-1.854-1.85-1.854.828-1.854 1.85.83 1.85 1.854 1.85zm174.992 15.74a2.82 2.82 0 0 0 2.823-2.816 2.822 2.822 0 1 0-5.645 0 2.82 2.82 0 0 0 2.822 2.816zM11.744 216.754a2.1 2.1 0 0 0 2.103-2.099 2.103 2.103 0 1 0-4.206 0 2.1 2.1 0 0 0 2.103 2.099z"/></g><path d="M97.746 53.664l-7.25 14.663 29.885 39.985 7.693-11.874c6.06-9.499 11.843-18.888 17.377-28.194l-5.672-14.359-3.653-1.878-35.336.083-3.044 1.574z" fill="#fff"/><g fill="#000"><path d="M90.828 68.548l6.475-13.752c.221-.47-.471-.911-.719-.414l-6.475 13.752c-.221.469.498.911.719.414z"/><path d="M90.275 69.045l29.802 39.571c.332.414.913-.165.581-.58L90.994 68.631c-.304-.414-1.024 0-.719.414zm7.222-14.719l3.459-1.85c.47-.248.055-.966-.415-.718l-3.459 1.85c-.498.276-.055.966.415.718z"/><path d="M101.648 52.531h25.928c.525 0 .525-.828 0-.828h-25.928c-.526 0-.526.828 0 .828zm44.191 15.63l-5.396-13.752c-.194-.497-.996-.276-.803.221l5.396 13.752c.194.497.996.276.803-.221z"/><path d="M144.925 68.575l-24.821 39.489c-.304.442.415.856.72.414l24.821-39.488c.277-.442-.443-.884-.72-.414zm-4.98-15.022l-2.906-1.85c-.443-.276-.858.414-.415.718l2.906 1.85c.47.304.885-.414.415-.718z"/><path d="M136.098 51.62h-21.639c-.525 0-.525.829 0 .829h21.639c.526 0 .526-.829 0-.829zM91.161 68.962l14.859-6.379c.498-.221.055-.911-.415-.718l-14.86 6.379c-.47.221-.055.939.415.718zm6.474-14.884a76.47 76.47 0 0 1 8.993 1.961c.526.138.748-.663.222-.801-2.961-.856-5.949-1.491-8.993-1.961-.526-.083-.775.718-.221.801z"/><path d="M106.407 55.901l1.743 6.268c.111.525.914.304.803-.221l-1.743-6.268c-.166-.497-.969-.304-.803.221zm1.273.082h22.22c.526 0 .526-.828 0-.828h-22.22c-.526 0-.526.828 0 .828z"/><path d="M129.54 56.149l-.83 4.584c-.083.525.72.746.803.221l.83-4.584c.083-.525-.72-.746-.803-.221zm-20.947 6.075h19.453c.526 0 .526-.828 0-.828h-19.453c-.526 0-.526.828 0 .828z"/><path d="M130.703 55.983l9.02-1.905c.526-.11.305-.911-.221-.801l-9.021 1.905c-.526.11-.304.911.222.801zm-1.384 5.993c2.795.442 5.396 2.016 7.942 3.203l8.107 3.811c.471.221.913-.497.415-.718l-8.605-4.032c-2.435-1.16-4.954-2.623-7.638-3.065-.525-.083-.747.718-.221.801zm-20.477 1.518l10.764 44.432c.139.525.913.304.803-.221l-10.764-44.431c-.139-.525-.941-.304-.803.221z"/><path d="M128.157 64.489c-3.376 14.249-6.171 28.664-8.329 43.162-.083.524.719.745.802.221 2.158-14.498 4.953-28.885 8.329-43.162.139-.525-.664-.746-.802-.221zm.276-27.642c1.246-3.176 1.937-6.517 2.048-9.941.028-.525-.802-.525-.83 0-.111 3.341-.802 6.6-2.02 9.72-.194.497.609.69.802.221zm5.673.552c2.656-3.01 5.645-5.661 8.993-7.898.443-.304.028-1.022-.415-.718-3.403 2.264-6.475 4.971-9.159 8.036-.36.387.221.967.581.58zm5.451 5.109a28.96 28.96 0 0 1 10.543-1.132c.526.028.526-.801 0-.828a29.56 29.56 0 0 0-10.764 1.16c-.498.166-.304.967.221.801z"/></g><g fill="#e8e8e8"><path d="M81.254 23.15a13.68 13.68 0 0 1-7.665 13.062c-.277.138-.249.552 0 .718 4.51 2.706 6.586 7.677 7.776 12.564.138.525.913.304.802-.221-1.245-5.109-3.459-10.273-8.163-13.062v.718c5.175-2.513 8.44-8.063 8.08-13.78-.028-.525-.858-.525-.83 0z"/><path d="M81.558 23.15c-.36 5.744 2.905 11.294 8.08 13.78v-.718c-4.732 2.817-6.946 7.98-8.191 13.117-.138.525.664.746.803.221 1.19-4.915 3.265-9.914 7.803-12.62.249-.138.277-.58 0-.718-4.925-2.375-8.025-7.594-7.693-13.062.055-.525-.775-.525-.802 0z"/></g><path d="M216.29 230.451c.968-.414 2.296-1.022 3.818-1.878 2.546-1.408 3.819-2.126 4.594-3.258.996-1.492.608-2.292 1.909-3.784a6.89 6.89 0 0 1 2.297-1.739c2.047-.856 3.957.165 7.139 1.298 2.933 1.049 5.23 1.546 9.823 2.568 1.826.414 4.04.828 7.25 1.822.913.276 1.633.525 2.131.691.055.58.083 2.071-.886 3.424-.443.607-1.051 1.104-2.02 1.546-2.241 1.05-4.372.856-6.171.773-3.874-.165-2.269.387-11.4.553l-4.76.027-4.261 2.983a227.9 227.9 0 0 0-6.973 5.274l-2.49-10.3z" fill="#000"/><path d="M204.751 195.105c-1.993 1.049-2.214 1.435-9.63 7.732-11.566 9.803-12.839 10.327-23.327 19.468-10.044 8.726-11.926 10.907-13.835 13.779-4.76 7.263-5.811 13.338-6.116 16.293-.415 3.976-.968 9.499 2.546 13.862 2.214 2.734 5.092 3.866 6.06 4.225 2.906 1.105 5.285.967 9.574.663 5.701-.414 10.045-1.519 11.761-1.988 1.881-.525 6.253-1.823 11.732-4.529 5.147-2.541 7.361-4.418 14.389-9.14 3.127-2.099 7.748-5.164 13.559-8.699.36-2.761.056-4.915-.249-6.268-.719-3.204-2.186-5.413-3.818-7.843a41.16 41.16 0 0 0-3.487-4.501 61.13 61.13 0 0 0 7.637-6.876c1.91-2.044 4.926-5.302 7.444-9.886 3.099-5.633 6.198-11.322 4.206-15.243-3.127-6.158-18.014-6.434-28.446-1.049z" fill="#fff"/><path opacity=".18" d="M229.544 198.115c-1.577 3.645-4.178 8.808-8.329 14.331-6.032 7.981-12.12 12.399-21.307 18.944-25.983 18.501-32.956 22.726-32.181 24.494 1.051 2.402 15.689-1.906 17.82-2.541 15.551-4.584 27.007-11.653 34.174-16.817l-5.479-8.339c2.241-1.602 5.341-4.143 8.246-7.926 1.605-2.071 4.04-5.274 5.617-10.107 1.605-4.805 1.661-9.085 1.439-12.039z" fill="#9b9797"/><g fill="#000"><path d="M204.64 195.077c-9.851 7.318-19.453 14.995-28.695 23.03-4.427 3.839-8.855 7.677-13.005 11.792-3.681 3.645-7.112 7.677-9.187 12.481-2.159 4.971-2.767 10.715-2.242 16.1.443 4.446 2.076 8.919 6.143 11.239 4.262 2.402 9.63 2.154 14.334 1.657 5.783-.58 11.484-1.989 16.879-4.17 12.037-4.888 21.473-14.028 32.846-20.076.471-.248.056-.966-.415-.718-9.491 5.054-17.571 12.344-27.09 17.397-4.981 2.651-10.349 4.584-15.883 5.772-5.119 1.077-10.875 1.905-16.077.911-2.435-.47-4.787-1.464-6.531-3.286-1.688-1.795-2.601-4.142-3.071-6.545-1.024-5.219-.554-11.128 1.162-16.154s5.064-9.251 8.716-13.007c3.791-3.893 7.942-7.483 12.01-11.045a475.1 475.1 0 0 1 30.521-24.632c.415-.332.028-1.05-.415-.746zm-27.118 56.609c9.076-3.507 17.295-8.753 25.098-14.497 3.846-2.817 7.637-5.744 11.401-8.671 3.708-2.9 7.249-5.965 10.127-9.693.332-.414-.387-.828-.719-.414-2.933 3.811-6.614 6.876-10.377 9.831l-11.262 8.56c-7.637 5.578-15.634 10.715-24.489 14.111-.498.166-.277.967.221.773z"/><path d="M213.606 228.435c5.34 4.474 8.163 11.405 7.415 18.336-.055.525.775.525.831 0 .747-7.124-2.186-14.304-7.665-18.916-.388-.359-.969.221-.581.58z"/><path d="M220.966 239.067c1.577-.47 2.961-1.795 4.289-2.734l4.953-3.48c.443-.303.028-1.021-.415-.718l-4.51 3.176c-1.384.967-2.906 2.458-4.538 2.955-.526.138-.305.939.221.801zm-4.566-8.23c3.127-1.297 6.005-3.065 8.606-5.246.415-.359-.194-.939-.581-.58-2.463 2.099-5.23 3.783-8.218 5.026-.499.221-.277 1.021.193.8z"/><path d="M224.702 225.232c.525 0 .525-.829 0-.829s-.526.829 0 .829zm.996-.994c.47-1.105.968-2.32 1.854-3.176 1.19-1.16 2.629-.994 4.15-.663 2.823.635 5.59 1.519 8.357 2.32 2.574.718 5.147 1.353 7.803 1.657 1.55.165 2.851.359 4.234 1.049 1.024.497 1.909.994 3.044 1.105.526.055.526-.773 0-.829-1.522-.138-2.712-1.187-4.151-1.657s-3.044-.441-4.538-.69c-3.265-.525-6.447-1.519-9.602-2.458l-4.676-1.242c-1.162-.249-2.38-.553-3.542-.194-2.02.608-2.989 2.762-3.736 4.557-.193.497.609.718.803.221z"/><path d="M230.098 233.461c5.921-.884 11.787-1.022 17.764-1.132 2.076-.028 4.289-.276 5.95-1.63 1.411-1.159 2.213-2.844 1.826-4.639-.111-.524-.913-.304-.802.221.525 2.513-1.744 4.363-3.985 4.916-2.297.552-4.787.276-7.139.331a105.38 105.38 0 0 0-13.836 1.16c-.526.055-.277.856.222.773z"/><path d="M251.1 227.965l6.171-4.39c.138-.939.581-2.983 2.269-4.722.498-.525 1.66-1.74 3.403-2.071 1.827-.359 3.238.469 4.815 1.187 2.546 1.16 5.008 1.602 9.879 2.541 3.846.718 5.783 1.077 8.55.938 3.763-.22 6.447-1.215 8.052.359.166.166.858.912.803 1.823-.083 1.16-1.328 1.905-2.325 2.485-4.344 2.486-6.779 3.204-6.779 3.204-6.143 1.794-9.242 2.706-11.899 2.927-2.158.165-5.23.248-8.937-.332-1.08 3.701-4.345 6.075-7.416 5.882-3.957-.248-7.61-4.694-6.586-9.831z"/></g><path d="M211.364 203.554c.609-1.85 1.743-4.197 3.874-4.97 1.384-.497 2.656-.166 3.072-.055 2.573.635 7.858-.277 18.401-2.072 5.23-.883 11.843-2.181 19.453-4.114.027 1.408 0 3.258-.083 5.412-.194 4.833-.692 8.478-.803 9.334-.47 3.424-1.3 9.113-3.818 16.016-.637 1.768-1.273 3.231-1.716 4.225 1.079.497 2.241 1.16 3.376 2.099 4.676 3.728 6.032 9.002 6.475 11.239-.664.801-1.66 1.988-2.933 3.341-5.147 5.468-9.906 8.533-18.983 14.139l-16.243 9.831c-7.969 4.694-14.416 8.339-22.441 10.631-1.992.58-5.147 1.353-9.131.939-1.937-.193-5.424-.552-8.772-2.982-4.289-3.093-5.645-7.622-6.199-9.61-1.245-4.446-.774-8.616.388-12.951.802-3.038 3.708-13.117 13.808-24.467 2.02-2.264 7.775-7.373 19.231-17.59l6.558-5.799-3.514-2.596z" fill="#fff"/><path opacity=".18" d="M248.997 195.905a102.13 102.13 0 0 1-3.21 10.052c-14.14 37.39-45.741 53.544-43.167 57.576 1.882 2.982 19.923-4.446 32.929-12.261 9.74-5.854 16.99-12.123 21.832-16.845-.775-1.132-1.964-2.678-3.763-4.142a19.36 19.36 0 0 0-4.649-2.789c.858-1.243 1.993-3.12 2.961-5.523.636-1.546 1.19-3.203 1.909-6.572 1.163-5.33 1.633-9.555 1.771-10.88.332-3.176.637-7.29.581-12.151l-7.194 3.535z" fill="#9b9797"/><g fill="#000"><path d="M255.776 192.343c.028 5.219-.304 10.438-1.023 15.63-.665 4.666-1.495 9.471-3.21 13.89-1.854 4.777-5.037 8.256-8.883 11.542l-11.843 9.914-13.642 11.322c-.415.331.166.911.581.58l24.932-20.766c3.652-3.093 6.973-6.296 8.965-10.742 1.937-4.308 2.878-9.03 3.625-13.669a105.18 105.18 0 0 0 1.328-17.701c0-.552-.83-.552-.83 0zm-43.942 11.985l3.432 1.822c.47.249.885-.469.415-.718l-3.431-1.822c-.471-.249-.886.469-.416.718z"/><path d="M215.266 205.819c-9.851 8.008-20.2 15.933-28.419 25.654-7.083 8.367-12.922 18.971-12.894 30.21 0 4.943 1.356 10.107 5.008 13.614 3.653 3.534 8.938 4.915 13.919 4.666 6.087-.303 11.871-2.706 17.294-5.357 5.811-2.844 11.318-6.213 16.852-9.554 11.4-6.904 24.129-13.338 32.68-23.859.332-.414-.249-.994-.581-.58-7.167 8.837-17.24 14.497-26.842 20.296l-15.91 9.5c-5.286 2.982-10.792 5.826-16.631 7.511-5.479 1.574-11.594 1.905-16.769-.828-4.98-2.596-7.526-7.622-8.052-13.09-1.024-11.045 4.538-22.036 11.262-30.431 8.385-10.466 19.342-18.805 29.691-27.2.388-.304-.193-.884-.608-.552z"/><path d="M249.55 227.662c5.203 2.485 8.827 7.4 9.685 13.089.083.525.886.304.803-.221a18.01 18.01 0 0 0-10.045-13.586c-.498-.221-.913.497-.443.718z"/><path d="M251.211 228.38c1.106-.442 1.992-1.188 2.933-1.906l3.348-2.54c.415-.332 0-1.05-.415-.718l-2.989 2.264c-.968.746-1.937 1.657-3.099 2.099-.47.193-.276.994.222.801z"/><path d="M257.907 223.602c.553-1.629 1.218-3.231 2.103-4.722 1.218-2.043 3.044-1.822 5.092-1.298l9.435 2.734c6.226 1.381 12.619 1.85 18.983 1.436.526-.027.526-.856 0-.828-7.499.497-15.053-.276-22.303-2.32-1.743-.497-3.431-1.132-5.175-1.629-1.328-.387-2.905-.829-4.289-.552-1.245.248-1.964 1.187-2.573 2.236-.858 1.492-1.522 3.093-2.075 4.722-.166.497.636.718.802.221zm1.19 13.338l6.198-4.722c.415-.331 0-1.049-.415-.718l-6.198 4.722c-.415.331 0 1.049.415.718z"/><path d="M265.268 232.025c6.751 1.463 13.641.359 20.034-2.071 2.905-1.105 6.226-2.348 8.716-4.225 1.743-1.298 1.992-3.783-.304-4.667-.499-.193-.72.607-.222.801 1.245.469 1.384 1.822.526 2.761-.415.47-.996.773-1.55 1.105a57.75 57.75 0 0 1-3.459 1.767c-2.462 1.16-5.008 2.154-7.637 2.927-5.174 1.491-10.598 1.988-15.911.829-.498-.139-.719.662-.193.773z"/></g><path d="M193.156 112.759c4.206-3.48 10.488-7.677 18.872-10.163 3.929-1.159 8.855-2.595 15.385-2.043 10.017.856 16.907 5.771 19.343 7.566 3.818 2.789 6.419 5.744 8.024 7.815l1.245 58.101.526 17.922a54.29 54.29 0 0 1-16.409 6.765c-16.326 3.728-29.912-1.243-35.419-3.645-.028-4.888-.332-12.233-1.826-21.042-2.435-14.47-6.226-20.297-8.606-32.751-1.19-6.434-2.324-16.099-1.135-28.525z" fill="#0a3871"/><path d="M243.186 117.536c-1.356 1.491-1.605 3.175-1.522 9.637.055 6.793.415 11.432.637 16.817.166 3.894.304 6.987.221 11.018-.083 5.081-.415 9.251-.72 12.04a120.69 120.69 0 0 1-6.917 7.125c-4.04 3.838-8.44 7.98-14.943 11.874-2.573 1.519-4.787 2.623-6.281 3.314-1.356-.221-2.878-.553-4.538-.967-3.93-.994-5.562-1.878-8.523-1.878-.885 0-3.68 0-3.957.994-.249.829 1.301 2.127 2.518 2.762 1.135.58 1.633.414 2.767.939 1.273.607 2.103 1.491 2.601 2.154-.525.745-1.328 1.877-2.213 3.341-1.024 1.712-1.246 2.375-2.435 4.418-1.246 2.154-1.882 3.231-2.435 3.783-.858.801-1.384.967-5.23 2.679-3.819 1.712-4.483 2.099-4.483 2.568s.747.58 3.708 1.85c2.407 1.022 2.629 1.243 3.874 1.602 1.549.442 2.49.718 3.625.469 1.798-.359 2.961-1.712 3.459-2.43.249.221.857.691 1.66.718.636 0 1.162-.248 1.577-.58 1.743-1.242 2.601-3.534 4.317-6.102.304-.442 1.383-2.071 3.127-3.894 1.079-1.16 2.075-2.016 2.795-2.596.968-.221 2.407-.552 4.123-1.049 6.668-1.905 11.483-4.197 15.523-6.13 2.352-1.133 5.009-2.624 10.294-5.579 4.593-2.568 6.973-4.004 9.076-6.82.221-.304 1.356-1.823 2.352-4.06.304-.69 1.384-3.148 1.965-7.455.276-1.906.276-2.955.304-8.92l.055-7.456c-.027-11.128-.608-10.134-.802-20.352-.028-.966-.055-3.589-.858-6.903-.858-3.59-1.937-5.192-2.546-5.992-.774-1.022-1.715-2.237-3.32-2.928-2.933-1.297-6.835-.248-8.855 1.989z" fill="#fff"/><path opacity=".25" d="M252.068 115.52a62.43 62.43 0 0 1 2.02 9.14c.665 4.612.914 9.693-.581 22.975-1.245 11.101-1.854 16.652-3.459 21.843-2.296 7.401-3.957 12.786-9.02 17.038-3.266 2.734-6.835 4.004-14.002 6.517-5.258 1.85-9.768 2.955-12.867 3.645a52.47 52.47 0 0 1-10.183 10.356c-3.653 2.816-7.167 4.749-10.072 6.075.415.276 2.13 1.381 4.455 1.077 2.711-.359 4.178-2.292 4.427-2.651.526.387 1.301.801 2.158.663 1.771-.276 2.712-2.789 3.183-3.922 1.023-2.347 3.071-5.578 7.664-9.112a117.82 117.82 0 0 0 11.954-3.839c6.669-2.568 11.152-5.053 15.967-7.732 7.72-4.308 9.463-6.075 10.736-7.787 2.325-3.12 3.293-6.324 3.708-7.732.747-2.513.886-5.33 1.162-10.825.194-4.087.194-7.235.194-9.61 0-4.087-.083-7.124-.166-9.747-.111-3.811-.332-8.285-.886-13.642-.415-3.894-.719-5.44-1.604-7.18-1.356-2.761-3.376-4.528-4.788-5.55z" fill="#9b9797"/><g fill="#000"><path d="M242.771 117.425c-1.439 3.59-1.605 7.456-1.522 11.294.083 4.225.304 8.423.498 12.648.388 8.56.664 17.148-.36 25.681-.055.525.775.525.831 0 .996-8.339.774-16.762.387-25.129l-.526-12.454c-.111-4.004-.028-8.036 1.494-11.819.194-.497-.608-.718-.802-.221z"/><path d="M242.992 166.33c-2.545 1.409-4.593 3.452-6.558 5.578l-6.641 6.573c-4.87 4.225-10.349 7.704-16.215 10.41-.498.221-.056.939.415.718 5.645-2.596 10.93-5.909 15.662-9.913 2.352-1.961 4.51-4.115 6.586-6.352 2.158-2.347 4.316-4.722 7.139-6.268.498-.304.083-1.022-.388-.746z"/><path d="M213.771 188.946l-9.159-1.988-4.621-1.022c-.968-.165-1.992-.248-2.85.304-1.328.856-1.328 2.43-.138 3.369.858.69 1.964.994 2.988 1.326 1.661.524 3.072 1.187 4.151 2.595.332.415 1.051 0 .719-.414-.968-1.243-2.13-2.126-3.625-2.651-1.023-.359-2.158-.58-3.099-1.104-.664-.359-1.522-.912-1.024-1.906.471-.939 1.661-.856 2.519-.718 2.296.332 4.593.994 6.89 1.519l7.056 1.519c.498.083.719-.718.193-.829z"/><path d="M203.478 193.669l-3.68 6.682-1.854 3.286c-.748 1.077-1.744 1.63-2.906 2.182l-6.641 3.037c-.941.553-1.55 1.547-.747 2.513.996 1.188 2.961.718 4.289.497 1.826-.303 3.569-.911 5.23-1.684 3.459-1.657 6.392-4.253 8.495-7.456.304-.442-.415-.856-.72-.414-1.854 2.872-4.427 5.191-7.443 6.793-1.439.746-2.989 1.353-4.566 1.712-.885.221-1.826.414-2.767.442-.858.055-1.079.166-1.494-.69-.526-.498-.471-.829.138-.995.194-.082.36-.165.553-.248l5.341-2.458c1.384-.635 2.739-1.187 3.68-2.43 1.107-1.463 1.882-3.203 2.767-4.805l3.044-5.523c.249-.497-.47-.911-.719-.441zm12.646 6.047c7.388-2.071 14.555-4.832 21.417-8.257 3.404-1.712 6.724-3.562 9.962-5.605 2.905-1.823 5.977-3.673 8.052-6.462.304-.442-.415-.856-.719-.414-2.159 2.927-5.535 4.832-8.578 6.71-3.1 1.905-6.31 3.673-9.575 5.302-6.668 3.286-13.614 5.937-20.781 7.953-.498.11-.277.911.222.773z"/><path d="M243.324 118.171c2.297-4.501 8.191-3.48 11.096-.276 3.487 3.866 3.653 9.527 4.04 14.442.831 10.742.997 21.567.333 32.309-.333 5.219-1.107 10.742-4.594 14.884-.332.414.249.994.581.58 3.127-3.756 4.206-8.505 4.649-13.255.581-6.075.581-12.233.526-18.336-.056-6.379-.36-12.785-.941-19.137-.443-4.777-1.301-10.051-5.258-13.227-3.376-2.706-9.02-2.623-11.179 1.602-.221.469.498.883.747.414zm-52.132 94.165c2.02.911 4.455 2.292 6.752 2.292 2.213-.028 3.846-1.85 5.34-3.231l12.867-11.902c.388-.359-.193-.939-.581-.58l-10.875 10.079c-1.605 1.464-3.265 3.563-5.285 4.474-2.38 1.077-5.645-.856-7.775-1.823-.499-.248-.914.47-.443.691z"/><path d="M202.454 211.756c.913 1.712 2.933 1.022 3.957-.166 2.02-2.375 3.597-5.246 5.313-7.815.304-.441-.415-.856-.72-.414l-3.237 4.805c-.609.884-3.293 5.661-4.594 3.176-.249-.47-.968-.055-.719.414zm-6.42-1.353c.83.442 1.854.884 2.767.442.471-.249.665-.635.886-1.077.387-.746.775-1.326 1.494-1.795.443-.304.028-1.022-.415-.718-.664.442-1.217.994-1.605 1.712-.277.525-.443 1.16-1.162 1.215-.526.055-1.107-.276-1.55-.497s-.885.469-.415.718z"/></g><path d="M190.362 52.614c-.969 1.961-1.937 5.247-2.242 6.324a61.49 61.49 0 0 0-1.992 9.969c-.304 2.651-.636 5.551-.36 9.389.139 1.823.332 4.695 1.411 8.257.72 2.43 1.771 5.937 4.622 9.527a23.97 23.97 0 0 0 7.609 6.269c1.439.027 3.182-.055 5.119-.414 3.487-.663 6.199-1.961 8.025-3.01a52.43 52.43 0 0 0 .996 4.445 60.76 60.76 0 0 0 2.961 8.45c1.134-.193 2.49-.524 3.929-1.187 4.566-2.126 6.752-6.047 7.527-7.677-.415-1.601-.747-3.341-1.052-5.136-1.051-6.71-.774-12.703-.11-17.563.581.193 1.522.442 2.684.387 2.269-.138 3.818-1.381 4.593-2.043.664-.552 3.68-3.231 3.57-7.207-.028-.939-.083-3.231-1.716-4.474-1.522-1.132-3.569-.718-5.064-.414-1.715.359-2.988 1.077-3.763 1.574.581-1.905 1.799-6.793 0-12.482-.387-1.215-2.961-8.947-10.543-12.288-10.293-4.584-22.662 2.209-26.204 9.306z" fill="#fff"/><path opacity=".24" d="M221.63 52.78a61.9 61.9 0 0 1 0 10.714c-1.19 13.393-6.503 22.699-7.886 25.019-2.103 3.535-5.7 8.671-11.456 13.724 1.716-.221 3.68-.607 5.783-1.353 5.784-2.043 9.657-5.55 11.76-7.842a46.01 46.01 0 0 0 1.937 10.88c.554 1.74 1.163 3.341 1.799 4.777l4.372-5.744c-.304-1.795-.581-3.7-.775-5.661-.636-5.937-.636-11.405-.304-16.265 1.245.028 3.044-.083 4.953-.828 8.357-3.314 13.116-16.486 8.606-23.665-.194-.304-1.19-1.85-3.238-3.231-6.336-4.253-14.389-1.022-15.551-.525z" fill="#9b9797"/><path d="M188.342 58.11a22.06 22.06 0 0 1-.526-10.024c.249-1.381 1.107-5.827 4.151-9.334 4.455-5.109 10.044-4.142 17.294-6.738 4.593-1.629 10.902-5.053 17.295-13.117l-1.744 8.975c.996.276 4.345.994 7.776-.69 5.7-2.789 6.198-9.527 6.226-9.831a17.6 17.6 0 0 1 1.383 9.334c-.387 2.982-1.466 5.219-2.241 6.572.332.359 2.103 2.182 4.151 1.905 2.49-.331 4.815-3.728 4.15-8.119a20.54 20.54 0 0 1 1.052 7.594c-.221 4.004-1.55 7.014-2.435 8.643.221.193 1.632 1.463 3.625 1.215 1.743-.221 3.237-1.491 3.818-3.286-.138 1.85-.47 4.529-1.549 7.594-1.467 4.142-2.684 4.474-3.293 7.428-.969 4.639 1.522 6.213.858 10.355-.554 3.479-2.823 5.661-5.7 8.45-5.23 5.053-11.235 7.787-16.271 9.306l.692-4.639c.636.387 1.743.911 3.126.856 2.823-.111 4.594-2.623 5.535-3.977 1.079-1.519 2.878-4.115 1.909-6.904-.802-2.264-2.933-3.203-3.127-3.286-2.49-1.049-5.7-.111-7.775 2.43l-3.459-13.641-11.761-7.428a22.52 22.52 0 0 0-13.143 1.546 22.44 22.44 0 0 0-10.017 8.809z" fill="#0a3871"/><g fill="#000"><path d="M187.927 57.999c-2.352 8.781-3.764 18.115-1.605 27.09 1.771 7.29 6.253 15.602 13.891 17.977.498.166.719-.635.221-.801-7.665-2.375-11.954-11.018-13.531-18.308-1.854-8.561-.443-17.397 1.798-25.737.166-.497-.636-.718-.774-.221z"/><path d="M200.821 102.928c12.757-1.298 23.41-10.494 26.399-22.975.11-.525-.664-.746-.803-.221a29.46 29.46 0 0 1-25.596 22.367c-.525.055-.553.884 0 .829z"/><path d="M226.5 80.173c5.701 3.479 11.262-3.811 11.622-8.919.194-2.706-1.051-4.777-3.735-5.55-2.491-.718-5.203.028-6.974 1.905-.359.387.222.966.582.58a6.14 6.14 0 0 1 5.81-1.795c1.107.249 2.325.856 2.961 1.85.692 1.077.609 2.568.443 3.755-.664 4.28-5.424 10.411-10.294 7.428-.442-.249-.885.469-.415.746z"/><path d="M226.445 80.118a60.9 60.9 0 0 0 1.134 22.92c.139.525.941.304.803-.221a59.74 59.74 0 0 1-1.135-22.478c.056-.525-.747-.746-.802-.221zm-14.306 18.916c.858 4.474 2.186 8.809 4.012 13.006.222.497.941.056.72-.414-1.799-4.114-3.099-8.395-3.93-12.813-.11-.525-.885-.304-.802.221z"/><path d="M216.732 112.151c5.341-.856 9.851-4.529 11.871-9.527.194-.497-.608-.718-.802-.221-1.909 4.75-6.254 8.146-11.29 8.947-.526.083-.304.884.221.801zM212.803 100c1.135.056 1.909-.718 2.767-1.38 1.135-.884 2.214-1.822 3.21-2.817 1.854-1.85 3.348-3.977 4.317-6.407.193-.497-.609-.718-.803-.221-.858 2.154-2.186 4.059-3.791 5.716-.719.773-1.494 1.464-2.296 2.154-.886.746-2.159 2.182-3.404 2.126-.526-.028-.526.801 0 .828z"/><path d="M212.858 99.559c2.352-1.519 4.538-3.258 6.586-5.164.387-.359-.194-.966-.581-.58a45.27 45.27 0 0 1-6.42 5.053c-.47.249-.027.966.415.69zm-16.27-39.958a113.7 113.7 0 0 0-2.629 21.401c0 .414.553.552.775.221l3.237-5.164c.277-.442-.442-.884-.719-.414l-3.238 5.164.775.221a113.67 113.67 0 0 1 2.601-21.18c.111-.552-.692-.773-.802-.248zm1.107 31.784c-.665-1.243-1.107-2.568-1.218-3.977-.083-.994.138-5.026 2.02-3.424.996.856.858 2.734.885 3.977l-.055 1.767a8.61 8.61 0 0 1-.166 1.215c-.719.497-1.273.469-1.632-.055-.36-.387-.969.193-.582.58 1.19 1.215 2.74 1.27 3.072-.635.249-1.353.249-2.789.138-4.142-.083-1.077-.083-2.623-.885-3.452-1.19-1.215-2.878-.083-3.348 1.215-.858 2.32-.028 5.247 1.079 7.345.221.47.941.055.692-.414zm5.727-24.853c.831 3.894 5.95 4.197 7.472.608.193-.497-.609-.718-.803-.221-1.245 2.927-5.23 2.375-5.866-.607-.111-.497-.913-.304-.803.221zm-1.632-9.582c1.051-2.347 3.763-3.48 6.254-2.955 2.573.552 4.538 2.541 5.811 4.722.276.469.996.055.719-.414-1.467-2.513-3.791-4.75-6.779-5.191-2.685-.387-5.562.884-6.725 3.396-.221.525.499.939.72.442zm-16.215.911c.747-1.546 2.047-3.231 3.957-3.203 1.826.028 3.154 1.629 4.067 3.038.277.442.996.028.72-.414-1.052-1.684-2.629-3.424-4.787-3.452-2.214-.028-3.764 1.795-4.649 3.617-.249.469.47.884.692.414zm4.897 12.509c.489 0 .886-1.817.886-4.059s-.397-4.059-.886-4.059-.885 1.817-.885 4.059.396 4.059.885 4.059z"/></g><path d="M193.018 114.056l-.249 4.06c-.249 5.578-.028 9.803.055 10.935a97.76 97.76 0 0 0 1.882 14.056 140.91 140.91 0 0 1-4.898 5.357c-4.04 4.225-6.115 6.379-9.436 8.616-3.708 2.485-6.281 3.258-7.665 3.617-1.743.414-3.403.801-5.423.359-3.293-.746-5.258-3.176-5.977-4.115-1.826-2.319-2.241-4.584-2.989-9.002-.553-3.231-.664-5.688-.83-10.438-.083-2.264-.193-5.026-.138-8.726.055-4.17.277-9.113.885-14.636.277-2.485.664-5.55 1.273-9.03a75.68 75.68 0 0 0-1.494-2.016l-1.633-2.098-4.206 3.59c-.359.138-.996.359-1.771.276-1.466-.138-2.324-1.16-2.628-1.491-1.356-1.547-1.163-3.507-1.107-3.894l5.755-6.186c.028-1.187.194-2.734.665-4.446.359-1.27.802-2.32 1.217-3.203.36-.718.858-1.519 1.494-2.32a15.81 15.81 0 0 1 3.349-3.258c-.803.359-.997.359-1.052.304-.138-.221 1.162-1.85 2.989-2.016 1.023-.111 1.826.276 2.379.525.858.414 1.439.939 1.799 1.325l5.147-4.363c.608.359 1.217.773 1.826 1.187a52.87 52.87 0 0 1 3.819 2.872 12.66 12.66 0 0 1-1.605 1.685c-1.107.966-2.214 1.546-3.072 1.933.526.166 1.467.552 1.937 1.463.471.884.277 1.85 0 3.065-.194.828-.443 1.491-.636 1.933.11 1.16.166 2.734-.166 4.501-.526 2.9-1.744 5.053-2.574 6.296a92.67 92.67 0 0 0 0 4.832c.222 8.533 1.467 13.531 2.269 19.827.471 3.59.941 8.92.803 15.63.636-.414 1.549-1.077 2.573-1.933 2.601-2.181 4.262-4.363 6.448-7.566 2.158-3.121 3.569-5.44 5.479-8.533 1.189-2.016 3.099-5.081 5.506-8.975z" fill="#fff"/><path opacity=".24" d="M167.865 88.844l-1.743 3.894c-1.688 3.977-3.072 7.787-4.206 11.432l-.498 14.028c-.139 5.275.193 11.571.802 24.163.249 5.192.47 8.34 2.906 10.632 2.545 2.374 6.087 2.43 8.079 2.43 10.626-.028 18.568-9.058 20.754-11.681-2.961 5.026-6.337 8.312-8.634 10.245-2.601 2.181-5.949 4.915-11.151 6.268-4.4 1.16-6.392.911-6.918.801-3.791-.911-5.894-4.059-6.641-5.136-1.799-2.679-2.38-5.468-2.712-11.46-.332-6.158.028-7.788.139-16.265.083-8.091-.222-10.383.387-15.989.36-3.286.803-5.992 1.162-7.815l-3.237-3.369c-.913.801-1.854 1.574-2.795 2.375a93.75 93.75 0 0 1-1.854 1.547 4.59 4.59 0 0 1-2.214-.332c-2.213-.939-3.597-3.673-2.905-4.611.443-.636 1.605-.139 3.21-.139 2.767.028 4.621-1.381 8.301-4.032l9.768-6.986z" fill="#9b9797"/><g fill="#000"><path d="M192.658 113.835c-6.392 8.809-11.123 18.916-19.203 26.427-.388.359.193.939.581.58 8.135-7.566 12.894-17.728 19.342-26.592.332-.415-.388-.829-.72-.415zm-23.797 47.856c10.958-.718 18.817-9.886 25.402-17.673.332-.414-.249-.994-.581-.58-6.392 7.622-14.14 16.734-24.793 17.452-.554 0-.554.829-.028.801zm-5.202-77.789c.055 2.182 1.494 4.059 3.597 4.667.526.138.747-.663.222-.801-1.744-.497-2.934-2.071-2.989-3.866-.028-.525-.858-.525-.83 0z"/><path d="M164.517 83.653c.276-2.402 4.565-.663 5.728-.055 1.134.58 2.269 1.16 2.518 2.54.193 1.049-.139 2.154-.415 3.176-.139.525.664.746.802.221.388-1.381.803-2.955.222-4.308-.554-1.381-2.076-2.016-3.321-2.623-1.273-.608-2.656-1.049-4.095-.884-.581.083-1.329.221-1.799.608-.498.387-.387.663-.47 1.353-.056.497.774.497.83-.028z"/><path d="M172.071 89.148c-.083 2.099.387 4.142-.111 6.241-.47 1.933-1.411 3.728-2.352 5.468-.249.469.471.883.72.414.968-1.823 1.937-3.673 2.435-5.661.526-2.154.055-4.28.138-6.462.028-.552-.802-.552-.83 0z"/><path d="M169.608 100.884c-.636 14.553 3.542 28.802 2.878 43.355-.028.524.802.524.83 0 .664-14.553-3.514-28.802-2.878-43.355.028-.525-.802-.525-.83 0zm-13.586.304c.83 1.16 1.715 2.264 2.711 3.286.36.387.941-.193.582-.58-.941-.994-1.799-2.016-2.574-3.12-.332-.442-1.051-.028-.719.414z"/><path d="M159.204 104.253c-1.577 8.975-2.352 18.088-2.325 27.2a148.8 148.8 0 0 0 .692 13.587c.36 3.838.803 7.87 2.823 11.239 1.826 3.065 5.036 5.384 8.689 5.302.525-.028.525-.856 0-.829-5.12.138-8.413-4.418-9.602-8.892-1.329-4.915-1.439-10.272-1.633-15.326-.415-10.714.332-21.484 2.186-32.032.055-.553-.747-.774-.83-.249zm-5.23-12.399c-2.601 2.182-5.119 4.474-7.499 6.876-.387.387.221.966.581.58 2.408-2.402 4.898-4.694 7.499-6.876.415-.331-.166-.911-.581-.58z"/><path d="M146.226 99.476c-.415 3.203 2.02 5.909 5.258 5.882.525 0 .525-.829 0-.829-2.795.028-4.788-2.319-4.428-5.053.083-.525-.747-.525-.83 0z"/><path d="M147.001 99.283c2.905.083 4.925 2.678 4.317 5.495-.111.525.691.746.802.221.747-3.397-1.633-6.434-5.119-6.545-.526 0-.526.829 0 .829z"/><path d="M152.452 104.861l9.436-8.671 4.04-4.225c.692-.801 2.435-2.375 2.463-3.479 0-.138-.083-.304-.194-.359a.47.47 0 0 0-.138-.055c-.166-.083-.388-.083-.498.055-.028.028-.056.055-.083.111-.332.414.249.994.581.58.027-.028.055-.055.083-.111-.166.028-.332.055-.498.055-.056-.248-.139-.248-.249.028l-.443.58-.996 1.243-1.744 2.016-3.791 3.783-8.55 7.842c-.415.387.194.967.581.608zm.36-11.46l.581-3.976c.138-.994.249-2.099.802-2.982 1.273-2.043 3.072-.58 4.04.801l1.218 1.795c.221.331 1.3 1.519 1.162 1.933.138-.11.277-.193.388-.304h-.139c-.526-.028-.526.801 0 .828h.139c.193 0 .359-.138.387-.304.194-.69-.277-1.105-.637-1.657l-2.075-3.065c-.747-1.022-1.715-2.016-3.099-1.878-1.328.138-2.131 1.16-2.546 2.347-.692 1.961-.747 4.197-1.051 6.241-.056.525.747.746.83.221z"/><path d="M154.112 90.28c.748 1.464 1.993 2.955 3.764 3.065 1.466.111 2.85-.718 3.237-2.154.139-.525-.664-.746-.802-.221-.36 1.326-1.827 1.823-3.044 1.408-1.162-.414-1.909-1.436-2.435-2.485-.249-.497-.969-.083-.72.387z"/><path d="M155.136 84.896c.139-1.353 1.688-1.712 2.74-1.353 1.107.359 1.964 1.353 2.739 2.154.609.635 1.799 1.519 1.965 2.403.221 1.187-1.273 1.988-2.269 2.292-.498.138-.305.939.221.801 1.218-.359 2.989-1.436 3.182-2.872.083-.58-.276-.884-.664-1.298l-2.324-2.43c-1.079-1.105-2.463-2.292-4.123-2.016-1.245.193-2.159 1.022-2.297 2.292-.055.552.775.552.83.028z"/><path d="M156.63 82.852c.388-.442.582-1.022.941-1.463.886-1.105 2.269-.083 3.182.58 1.771 1.243 3.653 3.507 2.048 5.661-.304.442.415.856.72.414 1.715-2.32.027-4.998-1.937-6.489-.914-.69-2.297-1.933-3.542-1.574-1.107.304-1.301 1.574-1.993 2.32-.359.359.222.939.581.552z"/><path d="M159.425 80.339c.969-1.187 2.242-2.43 3.736-1.187.996.801 1.632 1.933 1.992 3.12.166.497.941.304.803-.221-.471-1.602-1.55-3.452-3.155-4.114-1.632-.663-2.988.635-3.957 1.823-.332.387.249.994.581.58z"/><path d="M165.541 80.45l5.146-4.363c.415-.359-.193-.939-.581-.58l-5.147 4.363c-.415.359.194.939.582.58zm6.115 3.534c1.633-1.187 3.21-2.458 4.676-3.838.388-.359-.193-.939-.581-.58-1.439 1.325-2.933 2.568-4.51 3.7-.443.304-.028 1.022.415.718z"/></g><path d="M184.08 81.913c9.231 0 16.714-7.468 16.714-16.679s-7.483-16.679-16.714-16.679-16.713 7.467-16.713 16.679 7.483 16.679 16.713 16.679z" stroke="#000" stroke-width="3" stroke-miterlimit="10"/><g fill="#000"><path d="M173.953 67.278a305.93 305.93 0 0 1 18.844-11.101c.47-.248.055-.967-.415-.718-6.42 3.452-12.701 7.152-18.844 11.101-.443.304-.028 1.022.415.718zm.691 7.235c5.064-3.7 10.183-7.263 15.413-10.742.443-.304.028-1.022-.415-.718a494.24 494.24 0 0 0-15.413 10.742c-.442.304-.027 1.022.415.718z"/></g></g><defs><clipPath id="A"><path fill="#fff" d="M0 0h336v304H0z"/></clipPath></defs></svg>